<mxfile host="Electron" modified="2024-09-02T10:46:45.504Z" agent="Mozilla/5.0 (Windows NT 10.0; Win64; x64) AppleWebKit/537.36 (KHTML, like Gecko) draw.io/22.0.3 Chrome/114.0.5735.289 Electron/25.8.4 Safari/537.36" etag="sLmqS7bS2RCE1veEoglI" version="22.0.3" type="device">
  <diagram name="Page-1" id="eCBL8KyVX_1nOjWXIkgj">
    <mxGraphModel dx="979" dy="650" grid="1" gridSize="10" guides="1" tooltips="1" connect="1" arrows="1" fold="1" page="1" pageScale="1" pageWidth="800" pageHeight="380" math="0" shadow="0">
      <root>
        <mxCell id="0" />
        <mxCell id="1" parent="0" />
        <mxCell id="56LDLpZw4f4GPgGyQNgY-1" value="Système" style="dashed=1;rounded=1;absoluteArcSize=1;arcSize=20;html=1;verticalAlign=top;align=left;spacingTop=5;spacingLeft=10;whiteSpace=wrap;fillColor=none;connectable=0;" vertex="1" parent="1">
          <mxGeometry x="40" y="10" width="720" height="340" as="geometry" />
        </mxCell>
        <mxCell id="56LDLpZw4f4GPgGyQNgY-2" value="Boire du café" style="rounded=1;whiteSpace=wrap;html=1;" vertex="1" parent="1">
          <mxGeometry x="180" y="90" width="90" height="40" as="geometry" />
        </mxCell>
        <mxCell id="56LDLpZw4f4GPgGyQNgY-3" value="Être réveillé" style="rounded=1;whiteSpace=wrap;html=1;" vertex="1" parent="1">
          <mxGeometry x="70" y="60" width="90" height="40" as="geometry" />
        </mxCell>
        <mxCell id="56LDLpZw4f4GPgGyQNgY-4" value="Être heureux" style="rounded=1;whiteSpace=wrap;html=1;" vertex="1" parent="1">
          <mxGeometry x="70" y="110" width="90" height="40" as="geometry" />
        </mxCell>
        <mxCell id="56LDLpZw4f4GPgGyQNgY-5" value="Commander du café" style="rounded=1;whiteSpace=wrap;html=1;" vertex="1" parent="1">
          <mxGeometry x="290" y="90" width="90" height="40" as="geometry" />
        </mxCell>
        <mxCell id="56LDLpZw4f4GPgGyQNgY-6" value="Utiliser le panneau de contrôle" style="rounded=1;whiteSpace=wrap;html=1;" vertex="1" parent="1">
          <mxGeometry x="390" y="90" width="100" height="40" as="geometry" />
        </mxCell>
        <mxCell id="56LDLpZw4f4GPgGyQNgY-7" value="Chauffer l&#39;eau" style="rounded=1;whiteSpace=wrap;html=1;" vertex="1" parent="1">
          <mxGeometry x="530" y="170" width="70" height="40" as="geometry" />
        </mxCell>
        <mxCell id="56LDLpZw4f4GPgGyQNgY-8" value="Moudre le grain" style="rounded=1;whiteSpace=wrap;html=1;" vertex="1" parent="1">
          <mxGeometry x="510" y="120" width="80" height="40" as="geometry" />
        </mxCell>
        <mxCell id="56LDLpZw4f4GPgGyQNgY-9" value="Gérer les opérations" style="rounded=1;whiteSpace=wrap;html=1;" vertex="1" parent="1">
          <mxGeometry x="420" y="140" width="70" height="40" as="geometry" />
        </mxCell>
        <mxCell id="56LDLpZw4f4GPgGyQNgY-10" value="Avoir de l&#39;eau chaude" style="rounded=1;whiteSpace=wrap;html=1;" vertex="1" parent="1">
          <mxGeometry x="420" y="190" width="90" height="40" as="geometry" />
        </mxCell>
        <mxCell id="56LDLpZw4f4GPgGyQNgY-11" value="Simplifier l&#39;utilisation" style="rounded=1;whiteSpace=wrap;html=1;" vertex="1" parent="1">
          <mxGeometry x="310" y="140" width="80" height="40" as="geometry" />
        </mxCell>
        <mxCell id="56LDLpZw4f4GPgGyQNgY-12" value="Disposer d&#39;énergie" style="rounded=1;whiteSpace=wrap;html=1;" vertex="1" parent="1">
          <mxGeometry x="610" y="140" width="70" height="40" as="geometry" />
        </mxCell>
        <mxCell id="56LDLpZw4f4GPgGyQNgY-13" value="Avoir de l&#39;électricité" style="rounded=1;whiteSpace=wrap;html=1;" vertex="1" parent="1">
          <mxGeometry x="630" y="90" width="70" height="40" as="geometry" />
        </mxCell>
        <mxCell id="56LDLpZw4f4GPgGyQNgY-14" value="" style="shape=flexArrow;endArrow=classic;html=1;rounded=0;" edge="1" parent="1">
          <mxGeometry width="50" height="50" relative="1" as="geometry">
            <mxPoint x="610" y="320" as="sourcePoint" />
            <mxPoint x="740" y="320" as="targetPoint" />
          </mxGeometry>
        </mxCell>
        <mxCell id="56LDLpZw4f4GPgGyQNgY-15" value="Comment ?" style="edgeLabel;html=1;align=center;verticalAlign=middle;resizable=0;points=[];" vertex="1" connectable="0" parent="56LDLpZw4f4GPgGyQNgY-14">
          <mxGeometry x="0.3682" y="-2" relative="1" as="geometry">
            <mxPoint x="-29" y="-22" as="offset" />
          </mxGeometry>
        </mxCell>
        <mxCell id="56LDLpZw4f4GPgGyQNgY-16" value="" style="shape=flexArrow;endArrow=classic;html=1;rounded=0;" edge="1" parent="1">
          <mxGeometry width="50" height="50" relative="1" as="geometry">
            <mxPoint x="190" y="320" as="sourcePoint" />
            <mxPoint x="60" y="320" as="targetPoint" />
          </mxGeometry>
        </mxCell>
        <mxCell id="56LDLpZw4f4GPgGyQNgY-17" value="Pourquoi ?" style="edgeLabel;html=1;align=center;verticalAlign=middle;resizable=0;points=[];" vertex="1" connectable="0" parent="56LDLpZw4f4GPgGyQNgY-16">
          <mxGeometry x="0.3682" y="-2" relative="1" as="geometry">
            <mxPoint x="29" y="-18" as="offset" />
          </mxGeometry>
        </mxCell>
      </root>
    </mxGraphModel>
  </diagram>
</mxfile>
